<svg
  width="26"
  height="24"
  viewBox="0 0 26 24"
  fill="none"
  xmlns="http://www.w3.org/2000/svg"
>
  <path
    d="M13.4317 23.7966L14.5165 22.7661C14.7877 22.4949 14.7877 22.061 14.5165 21.8441L6.10969 13.3831H24.6588C24.9843 13.3831 25.3097 13.1119 25.3097 12.7322V11.2136C25.3097 10.8881 24.9843 10.5627 24.6588 10.5627H6.10969L14.5165 2.15593C14.7877 1.93898 14.7877 1.50508 14.5165 1.2339L13.4317 0.20339C13.2148 -0.0677966 12.7809 -0.0677966 12.5097 0.20339L1.17409 11.539C0.902907 11.8102 0.902907 12.1898 1.17409 12.461L12.5097 23.7966C12.7809 24.0678 13.2148 24.0678 13.4317 23.7966Z"
    fill="#BEBEBE"
  />
</svg>